<?xml version="1.0" encoding="UTF-8" standalone="no"?>
<!-- Created with Inkscape (http://www.inkscape.org/) -->

<svg
   xmlns:dc="http://purl.org/dc/elements/1.1/"
   xmlns:cc="http://creativecommons.org/ns#"
   xmlns:rdf="http://www.w3.org/1999/02/22-rdf-syntax-ns#"
   xmlns:svg="http://www.w3.org/2000/svg"
   xmlns="http://www.w3.org/2000/svg"
   xmlns:xlink="http://www.w3.org/1999/xlink"
   xmlns:sodipodi="http://sodipodi.sourceforge.net/DTD/sodipodi-0.dtd"
   xmlns:inkscape="http://www.inkscape.org/namespaces/inkscape"
   width="64px"
   height="64px"
   id="svg3096"
   version="1.1"
   inkscape:version="0.48.5 r10040"
   sodipodi:docname="logo_osx.svg"
   inkscape:export-filename="/home/vlad/prog/cloudmus/art/logo.png"
   inkscape:export-xdpi="180"
   inkscape:export-ydpi="180"
   enable-background="new">
  <defs
     id="defs3098">
    <linearGradient
       inkscape:collect="always"
       id="linearGradient4070">
      <stop
         style="stop-color:#ffffff;stop-opacity:1"
         offset="0"
         id="stop4072" />
      <stop
         style="stop-color:#000000;stop-opacity:0;"
         offset="1"
         id="stop4074" />
    </linearGradient>
    <radialGradient
       inkscape:collect="always"
       xlink:href="#linearGradient4070"
       id="radialGradient5234"
       gradientUnits="userSpaceOnUse"
       gradientTransform="matrix(2.7121266,-1.4135253e-7,1.2305165e-7,2.3050023,-53.488811,-18.289419)"
       cx="31.437153"
       cy="13.937421"
       fx="31.437153"
       fy="13.937421"
       r="25.363636" />
    <radialGradient
       inkscape:collect="always"
       xlink:href="#linearGradient4070"
       id="radialGradient6850"
       gradientUnits="userSpaceOnUse"
       gradientTransform="matrix(4.0319158,8.919654e-8,-6.0707377e-8,2.7844117,-94.539252,-23.834622)"
       cx="31.103786"
       cy="11.566724"
       fx="31.103786"
       fy="11.566724"
       r="25.363636" />
    <filter
       inkscape:collect="always"
       id="filter6864">
      <feBlend
         inkscape:collect="always"
         mode="screen"
         in2="BackgroundImage"
         id="feBlend6866" />
    </filter>
    <filter
       inkscape:collect="always"
       id="filter6882">
      <feGaussianBlur
         inkscape:collect="always"
         stdDeviation="0.47683272"
         id="feGaussianBlur6884" />
    </filter>
    <filter
       inkscape:collect="always"
       id="filter6894"
       x="-0.1051095"
       width="1.210219"
       y="-0.10510948"
       height="1.210219">
      <feGaussianBlur
         inkscape:collect="always"
         stdDeviation="1.3810428"
         id="feGaussianBlur6896" />
    </filter>
  </defs>
  <sodipodi:namedview
     id="base"
     pagecolor="#895c40"
     bordercolor="#666666"
     borderopacity="1.0"
     inkscape:pageopacity="0.39215686"
     inkscape:pageshadow="2"
     inkscape:zoom="2.75"
     inkscape:cx="-97.767435"
     inkscape:cy="15.200824"
     inkscape:current-layer="layer5"
     showgrid="false"
     inkscape:document-units="px"
     inkscape:grid-bbox="true"
     inkscape:snap-nodes="false"
     inkscape:snap-bbox="true"
     inkscape:window-width="1920"
     inkscape:window-height="1001"
     inkscape:window-x="0"
     inkscape:window-y="0"
     inkscape:window-maximized="1">
    <inkscape:grid
       type="xygrid"
       id="grid3104"
       empspacing="5"
       visible="true"
       enabled="true"
       snapvisiblegridlinesonly="true" />
  </sodipodi:namedview>
  <metadata
     id="metadata3101">
    <rdf:RDF>
      <cc:Work
         rdf:about="">
        <dc:format>image/svg+xml</dc:format>
        <dc:type
           rdf:resource="http://purl.org/dc/dcmitype/StillImage" />
        <dc:title></dc:title>
      </cc:Work>
    </rdf:RDF>
  </metadata>
  <g
     inkscape:groupmode="layer"
     id="layer5"
     inkscape:label="BgShadow"
     style="display:inline">
    <ellipse
       d="m 16.077343,894.72839 c 0,8.70783 -7.0590837,15.76691 -15.76690481,15.76691 -8.70782109,0 -15.76690519,-7.05908 -15.76690519,-15.76691 0,-8.70782 7.0590841,-15.7669 15.76690519,-15.7669 8.70782111,0 15.76690481,7.05908 15.76690481,15.7669 z"
       ry="15.766907"
       rx="15.766905"
       cy="894.72839"
       cx="0.31043819"
       id="ellipse6891"
       style="fill:#000000;fill-opacity:1;stroke:#dedede;stroke-width:0.99987173;stroke-miterlimit:4;stroke-opacity:1;stroke-dasharray:none;filter:url(#filter6894)"
       transform="matrix(1.844239,0,0,1.844238,31.427537,-1618.0922)"
       sodipodi:cx="0.31043819"
       sodipodi:cy="894.72839"
       sodipodi:rx="15.766905"
       sodipodi:ry="15.766907" />
  </g>
  <g
     id="layer1"
     inkscape:label="Bg"
     inkscape:groupmode="layer"
     style="display:inline">
    <ellipse
       sodipodi:ry="15.766907"
       sodipodi:rx="15.766905"
       sodipodi:cy="894.72839"
       sodipodi:cx="0.31043819"
       transform="matrix(1.844239,0,0,1.844238,31.427537,-1618.0922)"
       style="fill:#296ed6;fill-opacity:1;stroke:#dedede;stroke-width:0.99987173;stroke-miterlimit:4;stroke-opacity:1;stroke-dasharray:none"
       id="path4636"
       cx="0.31043819"
       cy="894.72839"
       rx="15.766905"
       ry="15.766907"
       d="m 16.077343,894.72839 c 0,8.70783 -7.0590837,15.76691 -15.76690481,15.76691 -8.70782109,0 -15.76690519,-7.05908 -15.76690519,-15.76691 0,-8.70782 7.0590841,-15.7669 15.76690519,-15.7669 8.70782111,0 15.76690481,7.05908 15.76690481,15.7669 z" />
  </g>
  <g
     inkscape:groupmode="layer"
     id="layer3"
     inkscape:label="Shadow"
     style="display:inline">
    <path
       id="path6868"
       d="m 38.943482,16.275301 c -2.312517,0 -4.723015,0.927723 -6.286526,2.857416 A 13.826038,13.825965 0 0 1 45.013974,32.866306 13.826038,13.825965 0 0 1 31.614603,46.67078 c 5.327987,0 10.920575,0.04129 15.781118,0 3.277539,-0.08258 5.913875,-3.021277 5.913875,-6.642558 0,-2.899786 -1.684868,-5.354459 -4.039796,-6.265686 0.626472,-1.543836 0.977548,-3.253398 0.977548,-5.05411 0,-6.862667 -5.058694,-12.433125 -11.303866,-12.433125 z M 24.825804,19.64533 c -3.874105,-0.18757 -6.862655,3.134898 -6.329736,6.740412 -6.428714,-1.81306 -9.3333545,4.200251 -9.4297875,10.212836 -0.07924,4.844855 3.6663225,9.972831 8.3118245,10.072202 4.771235,0 9.140541,0 13.809839,0 l 0,-2.743421 A 11.06083,11.060728 0 0 1 20.12711,32.866306 11.06083,11.060728 0 0 1 30.302212,21.849141 c -1.087506,-1.341343 -2.694443,-2.25556 -5.476408,-2.203811 z m 6.36214,24.282029 A 11.06083,11.060728 0 0 0 42.24877,32.866306 11.06083,11.060728 0 0 0 31.30676,21.811253 c -0.04506,0.157488 -0.07627,0.337489 -0.118834,0.502114 l 0,2.257054 a 8.2956235,8.2954119 0 0 1 8.295622,8.295885 8.2956235,8.2954119 0 0 1 -8.295622,8.295516 l 0,2.765537 z m 0,-2.765537 0,-2.764791 a 5.5304153,5.5303129 0 0 1 -5.53042,-5.530723 5.5304153,5.5303129 0 0 1 5.53042,-5.529955 l 0,-2.765932 a 8.2956227,8.2955197 0 0 0 -8.295622,8.295887 8.2956227,8.2955197 0 0 0 8.295622,8.295514 z m 0,-13.825469 0,11.060678 a 5.5304153,5.5303129 0 0 0 5.53041,-5.530723 5.5304153,5.5303129 0 0 0 -5.53041,-5.529955 z"
       mask="none"
       style="opacity:0.14444442;fill:#000000;fill-opacity:1;stroke:none;filter:url(#filter6882)"
       inkscape:connector-curvature="0" />
  </g>
  <g
     inkscape:groupmode="layer"
     id="layer4"
     inkscape:label="Logo"
     style="display:inline">
    <path
       inkscape:connector-curvature="0"
       style="fill:#dedede;fill-opacity:1;stroke:none"
       mask="none"
       d="m 39.125301,15.093483 c -2.312517,0 -4.723015,0.927723 -6.286526,2.857416 A 13.826038,13.825965 0 0 1 45.195793,31.684488 13.826038,13.825965 0 0 1 31.796422,45.488962 c 5.327987,0 10.920575,0.04129 15.781118,0 3.277539,-0.08258 5.913875,-3.021277 5.913875,-6.642558 0,-2.899786 -1.684868,-5.354459 -4.039796,-6.265686 0.626472,-1.543836 0.977548,-3.253398 0.977548,-5.05411 0,-6.862667 -5.058694,-12.433125 -11.303866,-12.433125 z m -14.117678,3.370029 c -3.874105,-0.18757 -6.862655,3.134898 -6.329736,6.740412 -6.428714,-1.81306 -9.3333549,4.200251 -9.4297883,10.212836 -0.079236,4.844855 3.6663233,9.972831 8.3118253,10.072202 4.771235,0 9.140541,0 13.809839,0 l 0,-2.743421 A 11.06083,11.060728 0 0 1 20.308929,31.684488 11.06083,11.060728 0 0 1 30.484031,20.667323 c -1.087506,-1.341343 -2.694443,-2.25556 -5.476408,-2.203811 z m 6.36214,24.282029 A 11.06083,11.060728 0 0 0 42.430589,31.684488 11.06083,11.060728 0 0 0 31.488579,20.629435 c -0.04506,0.157488 -0.07627,0.337489 -0.118834,0.502114 l 0,2.257054 a 8.2956235,8.2954119 0 0 1 8.295622,8.295885 8.2956235,8.2954119 0 0 1 -8.295622,8.295516 l 0,2.765537 z m 0,-2.765537 0,-2.764791 a 5.5304153,5.5303129 0 0 1 -5.53042,-5.530723 5.5304153,5.5303129 0 0 1 5.53042,-5.529955 l 0,-2.765932 a 8.2956227,8.2955197 0 0 0 -8.295622,8.295887 8.2956227,8.2955197 0 0 0 8.295622,8.295514 z m 0,-13.825469 0,11.060678 a 5.5304153,5.5303129 0 0 0 5.53041,-5.530723 5.5304153,5.5303129 0 0 0 -5.53041,-5.529955 z"
       id="path2998-6-1" />
  </g>
  <g
     inkscape:groupmode="layer"
     id="layer2"
     inkscape:label="Light"
     style="display:inline;filter:url(#filter6864)">
    <path
       sodipodi:type="arc"
       style="opacity:0.44814818;fill:url(#radialGradient6850);fill-opacity:1;stroke:none"
       id="path4068"
       sodipodi:cx="31.772728"
       sodipodi:cy="28.863636"
       sodipodi:rx="24.863636"
       sodipodi:ry="25.045454"
       d="m 56.636364,28.863636 a 24.863636,25.045454 0 1 1 -49.7272721,0 24.863636,25.045454 0 1 1 49.7272721,0 z"
       transform="matrix(1.2065814,0,0,1.1978222,-6.336381,-2.6644122)" />
  </g>
</svg>
