<?xml version="1.0" encoding="UTF-8" standalone="no"?>
<!-- Created with Inkscape (http://www.inkscape.org/) -->

<svg
   xmlns:dc="http://purl.org/dc/elements/1.1/"
   xmlns:cc="http://creativecommons.org/ns#"
   xmlns:rdf="http://www.w3.org/1999/02/22-rdf-syntax-ns#"
   xmlns:svg="http://www.w3.org/2000/svg"
   xmlns="http://www.w3.org/2000/svg"
   xmlns:sodipodi="http://sodipodi.sourceforge.net/DTD/sodipodi-0.dtd"
   xmlns:inkscape="http://www.inkscape.org/namespaces/inkscape"
   width="64px"
   height="64px"
   id="svg3096"
   version="1.1"
   inkscape:version="0.48.5 r10040"
   sodipodi:docname="logo.svg"
   inkscape:export-filename="/home/vlad/prog/cloudmus/art/logo.png"
   inkscape:export-xdpi="90"
   inkscape:export-ydpi="90">
  <defs
     id="defs3098" />
  <sodipodi:namedview
     id="base"
     pagecolor="#ffffff"
     bordercolor="#666666"
     borderopacity="1.0"
     inkscape:pageopacity="0.0"
     inkscape:pageshadow="2"
     inkscape:zoom="11"
     inkscape:cx="25.134291"
     inkscape:cy="31.070451"
     inkscape:current-layer="layer1"
     showgrid="true"
     inkscape:document-units="px"
     inkscape:grid-bbox="true"
     inkscape:snap-nodes="false"
     inkscape:snap-bbox="true"
     inkscape:window-width="598"
     inkscape:window-height="419"
     inkscape:window-x="449"
     inkscape:window-y="166"
     inkscape:window-maximized="0">
    <inkscape:grid
       type="xygrid"
       id="grid3104" />
  </sodipodi:namedview>
  <metadata
     id="metadata3101">
    <rdf:RDF>
      <cc:Work
         rdf:about="">
        <dc:format>image/svg+xml</dc:format>
        <dc:type
           rdf:resource="http://purl.org/dc/dcmitype/StillImage" />
        <dc:title></dc:title>
      </cc:Work>
    </rdf:RDF>
  </metadata>
  <g
     id="layer1"
     inkscape:label="Layer 1"
     inkscape:groupmode="layer">
    <g
       id="g3115"
       transform="matrix(1.9661436,0,0,1.9661436,-0.58385367,-2.6018098)">
      <ellipse
         d="m 16.077343,894.72839 c 0,8.70783 -7.0590837,15.76691 -15.76690481,15.76691 -8.70782109,0 -15.76690519,-7.05908 -15.76690519,-15.76691 0,-8.70782 7.0590841,-15.7669 15.76690519,-15.7669 8.70782111,0 15.76690481,7.05908 15.76690481,15.7669 z"
         ry="15.766907"
         rx="15.766905"
         cy="894.72839"
         cx="0.31043819"
         id="path4636"
         style="fill:#3771c8;fill-opacity:1;stroke:none"
         transform="translate(16.262031,-877.12957)"
         sodipodi:cx="0.31043819"
         sodipodi:cy="894.72839"
         sodipodi:rx="15.766905"
         sodipodi:ry="15.766907" />
      <path
         id="path2998-6-1"
         d="m 20.196467,9 c -1.176169,0 -2.402172,0.4718495 -3.197389,1.45331 a 7.0320593,7.0320219 0 0 1 6.284901,6.985039 7.0320593,7.0320219 0 0 1 -6.815052,7.021091 c 2.709867,0 5.554312,0.021 8.026432,0 1.666989,-0.042 3.007855,-1.536651 3.007855,-3.37847 0,-1.47486 -0.85694,-2.723331 -2.05468,-3.18679 0.31863,-0.78521 0.497191,-1.65471 0.497191,-2.57057 C 25.945725,11.83319 23.372823,9 20.196467,9 z m -7.18039,1.71403 c -1.970408,-0.0954 -3.4904138,1.59444 -3.2193658,3.42824 -3.2697074,-0.92214 -4.7470364,2.136289 -4.7960834,5.194349 -0.0403,2.464141 1.864728,5.07228 4.2274764,5.122821 2.4266968,0 4.6489688,0 7.0238198,0 l 0,-1.395331 a 5.6256471,5.6255951 0 0 1 -5.625649,-5.62576 5.6256471,5.6255951 0 0 1 5.175157,-5.603439 c -0.553116,-0.68222 -1.37042,-1.1472 -2.785355,-1.12088 z m 3.235847,12.350079 a 5.6256471,5.6255951 0 0 0 5.625645,-5.62576 5.6256471,5.6255951 0 0 0 -5.565214,-5.622709 c -0.02292,0.0801 -0.03879,0.17165 -0.06044,0.25538 l 0,1.14796 a 4.2192358,4.2191282 0 0 1 4.219235,4.219369 4.2192358,4.2191282 0 0 1 -4.219235,4.219181 l 0,1.406579 z m 0,-1.406579 0,-1.4062 a 2.8128237,2.8127716 0 0 1 -2.812826,-2.81298 2.8128237,2.8127716 0 0 1 2.812826,-2.81259 l 0,-1.40678 a 4.2192354,4.219183 0 0 0 -4.219235,4.21937 4.2192354,4.219183 0 0 0 4.219235,4.21918 z m 0,-7.03177 0,5.62557 a 2.8128237,2.8127716 0 0 0 2.812821,-2.81298 2.8128237,2.8127716 0 0 0 -2.812821,-2.81259 z"
         mask="none"
         style="fill:#ffffff;fill-opacity:1;stroke:none"
         inkscape:connector-curvature="0" />
    </g>
  </g>
</svg>
